<mxfile host="65bd71144e">
    <diagram id="dp9Ab3k8bmLvIrvLi6KY" name="Page-1">
        <mxGraphModel dx="1254" dy="719" grid="1" gridSize="10" guides="1" tooltips="1" connect="1" arrows="1" fold="1" page="0" pageScale="1" pageWidth="850" pageHeight="1100" math="0" shadow="0">
            <root>
                <mxCell id="0"/>
                <mxCell id="1" parent="0"/>
                <mxCell id="13" style="edgeStyle=none;html=1;fontSize=20;entryX=0.793;entryY=0.087;entryDx=0;entryDy=0;startArrow=classic;startFill=1;endArrow=none;endFill=0;exitX=0.908;exitY=1.014;exitDx=0;exitDy=0;exitPerimeter=0;entryPerimeter=0;" edge="1" parent="1" source="4" target="7">
                    <mxGeometry relative="1" as="geometry">
                        <mxPoint x="250" y="310" as="targetPoint"/>
                        <mxPoint x="120" y="-10" as="sourcePoint"/>
                        <Array as="points">
                            <mxPoint x="183" y="310"/>
                        </Array>
                    </mxGeometry>
                </mxCell>
                <mxCell id="140" style="edgeStyle=none;html=1;entryX=0.087;entryY=0.222;entryDx=0;entryDy=0;entryPerimeter=0;fontFamily=Helvetica;fontSize=20;startArrow=none;startFill=0;endArrow=classic;endFill=1;exitX=0.19;exitY=1.013;exitDx=0;exitDy=0;exitPerimeter=0;" edge="1" parent="1" source="4" target="7">
                    <mxGeometry relative="1" as="geometry"/>
                </mxCell>
                <mxCell id="141" style="edgeStyle=none;html=1;entryX=0.337;entryY=0.037;entryDx=0;entryDy=0;entryPerimeter=0;fontFamily=Helvetica;fontSize=20;startArrow=none;startFill=0;endArrow=classic;endFill=1;exitX=0.437;exitY=0.997;exitDx=0;exitDy=0;exitPerimeter=0;" edge="1" parent="1" source="4" target="7">
                    <mxGeometry relative="1" as="geometry">
                        <mxPoint x="92" y="-10" as="sourcePoint"/>
                    </mxGeometry>
                </mxCell>
                <mxCell id="142" style="edgeStyle=none;html=1;entryX=0.551;entryY=0.003;entryDx=0;entryDy=0;entryPerimeter=0;fontFamily=Helvetica;fontSize=20;startArrow=none;startFill=0;endArrow=classic;endFill=1;exitX=0.665;exitY=0.991;exitDx=0;exitDy=0;exitPerimeter=0;" edge="1" parent="1" source="4" target="7">
                    <mxGeometry relative="1" as="geometry"/>
                </mxCell>
                <mxCell id="4" value="&lt;span style=&quot;font-size: 20px;&quot;&gt;USER&lt;/span&gt;" style="whiteSpace=wrap;html=1;" vertex="1" parent="1">
                    <mxGeometry x="20" width="180" height="80" as="geometry"/>
                </mxCell>
                <mxCell id="136" style="edgeStyle=none;html=1;exitX=1;exitY=0.5;exitDx=0;exitDy=0;entryX=0.491;entryY=-0.057;entryDx=0;entryDy=0;entryPerimeter=0;fontFamily=Helvetica;fontSize=20;startArrow=none;startFill=0;endArrow=classic;endFill=1;" edge="1" parent="1" source="7" target="135">
                    <mxGeometry relative="1" as="geometry">
                        <Array as="points">
                            <mxPoint x="486" y="420"/>
                        </Array>
                    </mxGeometry>
                </mxCell>
                <mxCell id="7" value="&lt;font style=&quot;font-size: 18px;&quot;&gt;RECIPE HUNT&lt;/font&gt;" style="ellipse;whiteSpace=wrap;html=1;fontSize=20;" vertex="1" parent="1">
                    <mxGeometry x="40" y="330" width="180" height="180" as="geometry"/>
                </mxCell>
                <mxCell id="36" style="edgeStyle=none;html=1;entryX=0;entryY=0.5;entryDx=0;entryDy=0;fontSize=18;startArrow=none;startFill=0;endArrow=classic;endFill=1;exitX=0.5;exitY=0;exitDx=0;exitDy=0;" edge="1" parent="1" source="8" target="4">
                    <mxGeometry relative="1" as="geometry">
                        <mxPoint x="-240" y="380" as="sourcePoint"/>
                        <Array as="points">
                            <mxPoint x="-320" y="40"/>
                        </Array>
                    </mxGeometry>
                </mxCell>
                <mxCell id="138" style="edgeStyle=none;html=1;entryX=0.017;entryY=0.608;entryDx=0;entryDy=0;fontFamily=Helvetica;fontSize=20;startArrow=none;startFill=0;endArrow=classic;endFill=1;exitX=1;exitY=0.75;exitDx=0;exitDy=0;entryPerimeter=0;" edge="1" parent="1" source="8" target="7">
                    <mxGeometry relative="1" as="geometry"/>
                </mxCell>
                <mxCell id="139" style="edgeStyle=none;html=1;fontFamily=Helvetica;fontSize=20;startArrow=none;startFill=0;endArrow=classic;endFill=1;exitX=1;exitY=0.25;exitDx=0;exitDy=0;entryX=0.008;entryY=0.391;entryDx=0;entryDy=0;entryPerimeter=0;" edge="1" parent="1" source="8" target="7">
                    <mxGeometry relative="1" as="geometry"/>
                </mxCell>
                <mxCell id="8" value="ADMIN" style="whiteSpace=wrap;html=1;fontSize=20;" vertex="1" parent="1">
                    <mxGeometry x="-400" y="380" width="160" height="80" as="geometry"/>
                </mxCell>
                <mxCell id="10" value="Login / Sign up" style="text;strokeColor=none;align=center;fillColor=none;html=1;verticalAlign=middle;whiteSpace=wrap;rounded=0;fontSize=20;rotation=-90;" vertex="1" parent="1">
                    <mxGeometry x="10" y="190" width="140" height="27.5" as="geometry"/>
                </mxCell>
                <mxCell id="12" value="Generate / Share Recipe" style="text;strokeColor=none;align=center;fillColor=none;html=1;verticalAlign=middle;whiteSpace=wrap;rounded=0;fontSize=20;rotation=-90;" vertex="1" parent="1">
                    <mxGeometry x="-80" y="190" width="240" height="35" as="geometry"/>
                </mxCell>
                <mxCell id="16" value="Provide Ingredients" style="text;strokeColor=none;align=center;fillColor=none;html=1;verticalAlign=middle;whiteSpace=wrap;rounded=0;fontSize=18;rotation=90;" vertex="1" parent="1">
                    <mxGeometry x="70" y="187.5" width="170" height="30" as="geometry"/>
                </mxCell>
                <mxCell id="18" value="Generated Recipe" style="text;strokeColor=none;align=center;fillColor=none;html=1;verticalAlign=middle;whiteSpace=wrap;rounded=0;fontSize=18;rotation=90;" vertex="1" parent="1">
                    <mxGeometry x="120" y="187.5" width="160" height="30" as="geometry"/>
                </mxCell>
                <mxCell id="34" value="Delete Recipe" style="text;strokeColor=none;align=center;fillColor=none;html=1;verticalAlign=middle;whiteSpace=wrap;rounded=0;fontSize=18;" vertex="1" parent="1">
                    <mxGeometry x="-160" y="370" width="130" height="30" as="geometry"/>
                </mxCell>
                <mxCell id="35" value="Approve / Reject recipe" style="text;strokeColor=none;align=center;fillColor=none;html=1;verticalAlign=middle;whiteSpace=wrap;rounded=0;fontSize=18;" vertex="1" parent="1">
                    <mxGeometry x="-195" y="440" width="200" height="30" as="geometry"/>
                </mxCell>
                <mxCell id="37" value="Delete User" style="text;strokeColor=none;align=center;fillColor=none;html=1;verticalAlign=middle;whiteSpace=wrap;rounded=0;fontSize=18;rotation=-90;" vertex="1" parent="1">
                    <mxGeometry x="-400" y="192.5" width="130" height="30" as="geometry"/>
                </mxCell>
                <mxCell id="135" value="&lt;font face=&quot;Helvetica&quot; style=&quot;font-size: 20px;&quot;&gt;Database&lt;/font&gt;" style="html=1;rounded=0;shadow=0;comic=0;labelBackgroundColor=none;strokeWidth=2;fontFamily=Verdana;fontSize=12;align=center;shape=mxgraph.ios7ui.horLines;" vertex="1" parent="1">
                    <mxGeometry x="420" y="440" width="135" height="50" as="geometry"/>
                </mxCell>
                <mxCell id="137" value="Store Recipe" style="text;strokeColor=none;align=center;fillColor=none;html=1;verticalAlign=middle;whiteSpace=wrap;rounded=0;fontFamily=Helvetica;fontSize=20;" vertex="1" parent="1">
                    <mxGeometry x="270" y="390" width="160" height="30" as="geometry"/>
                </mxCell>
            </root>
        </mxGraphModel>
    </diagram>
</mxfile>